
/*
 * asa_branca.h
 *
 * Created: 04/09/2022 11:00:51
 *  Author: Leticia
 */ 


#include "notes.h"
// Tempo da musica
#define TIME_ASABRANCA 120 

int asa_branca_melody[] = {

	// Asa branca - Luiz Gonzaga
	// Score available at https://musescore.com/user/190926/scores/181370

	NOTE_G4,8, NOTE_A4,8, NOTE_B4,4, NOTE_D5,4, NOTE_D5,4, NOTE_B4,4,
	NOTE_C5,4, NOTE_C5,2, NOTE_G4,8, NOTE_A4,8,
	NOTE_B4,4, NOTE_D5,4, NOTE_D5,4, NOTE_C5,4,

	NOTE_B4,2, REST,8, NOTE_G4,8, NOTE_G4,8, NOTE_A4,8,
	NOTE_B4,4, NOTE_D5,4, REST,8, NOTE_D5,8, NOTE_C5,8, NOTE_B4,8,
	NOTE_G4,4, NOTE_C5,4, REST,8, NOTE_C5,8, NOTE_B4,8, NOTE_A4,8,

	NOTE_A4,4, NOTE_B4,4, REST,8, NOTE_B4,8, NOTE_A4,8, NOTE_G4,8,
	NOTE_G4,2, REST,8, NOTE_G4,8, NOTE_G4,8, NOTE_A4,8,
	NOTE_B4,4, NOTE_D5,4, REST,8, NOTE_D5,8, NOTE_C5,8, NOTE_B4,8,

	NOTE_G4,4, NOTE_C5,4, REST,8, NOTE_C5,8, NOTE_B4,8, NOTE_A4,8,
	NOTE_A4,4, NOTE_B4,4, REST,8, NOTE_B4,8, NOTE_A4,8, NOTE_G4,8,
	NOTE_G4,4, NOTE_F5,8, NOTE_D5,8, NOTE_E5,8, NOTE_C5,8, NOTE_D5,8, NOTE_B4,8,

	NOTE_C5,8, NOTE_A4,8, NOTE_B4,8, NOTE_G4,8, NOTE_A4,8, NOTE_G4,8, NOTE_E4,8, NOTE_G4,8,
	NOTE_G4,4, NOTE_F5,8, NOTE_D5,8, NOTE_E5,8, NOTE_C5,8, NOTE_D5,8, NOTE_B4,8,
	NOTE_C5,8, NOTE_A4,8, NOTE_B4,8, NOTE_G4,8, NOTE_A4,8, NOTE_G4,8, NOTE_E4,8, NOTE_G4,8,
	NOTE_G4,-2, REST,4
	
};

#define SIZE_ASA sizeof(asa_branca_melody)